<?xml version="1.0" ?><!DOCTYPE svg  PUBLIC '-//W3C//DTD SVG 1.1//EN'  'http://www.w3.org/Graphics/SVG/1.1/DTD/svg11.dtd'><svg height="127.000" viewBox="-14.000 -113.000 128.000 127.000" width="128.000" xmlns="http://www.w3.org/2000/svg"><line fill="none" stroke="none" stroke-linecap="round" stroke-width="2.0" x1="0.0" x2="0.0" y1="0.0" y2="0.0"/><polyline fill="none" points="0.0,-0.0 100.0,-0.0 100.0,-100.0 0.0,-100.00000000000001 -1.8369701987210297e-14,-1.4210854715202004e-14" stroke="#000" stroke-linecap="round" stroke-linejoin="round" stroke-width="3.0"/><polyline fill="none" points="9.999999999999986,-10.000000000000012 89.99999999999999,-9.999999999999993 90.00000000000001,-90.0 10.000000000000014,-90.00000000000003 9.99999999999998,-10.000000000000028" stroke="#000" stroke-linecap="round" stroke-linejoin="round" stroke-width="3.0"/><polyline fill="none" points="19.999999999999986,-20.00000000000002 79.99999999999999,-19.999999999999993 80.00000000000001,-80.0 20.000000000000014,-80.00000000000004 19.999999999999975,-20.000000000000043" stroke="#000" stroke-linecap="round" stroke-linejoin="round" stroke-width="3.0"/><polyline fill="none" points="29.999999999999982,-30.000000000000036 69.99999999999999,-30.000000000000007 70.00000000000001,-70.0 30.000000000000014,-70.00000000000003 29.99999999999998,-30.00000000000003" stroke="#000" stroke-linecap="round" stroke-linejoin="round" stroke-width="3.0"/><polyline fill="none" points="39.999999999999986,-40.000000000000014 59.999999999999986,-39.99999999999999 60.00000000000001,-59.99999999999999 40.00000000000001,-60.000000000000014 39.999999999999986,-40.000000000000014" stroke="#000" stroke-linecap="round" stroke-linejoin="round" stroke-width="3.0"/><line fill="none" stroke="none" stroke-linecap="round" stroke-width="2.0" x1="0.0" x2="0.0" y1="0.0" y2="0.0"/><polygon fill="none" fill-rule="evenodd" points="0.0,0.0 0.0,0.0 0.0,0.0" stroke-linejoin="round"/></svg>