<?xml version="1.0" ?><!DOCTYPE svg  PUBLIC '-//W3C//DTD SVG 1.1//EN'  'http://www.w3.org/Graphics/SVG/1.1/DTD/svg11.dtd'><svg height="127.000" viewBox="-14.000 -113.000 503.000 127.000" width="503.000" xmlns="http://www.w3.org/2000/svg"><line fill="none" stroke="none" stroke-linecap="round" stroke-width="2.0" x1="0.0" x2="0.0" y1="0.0" y2="0.0"/><polyline fill="none" points="0.0,-0.0 100.0,-0.0 100.0,-100.0 0.0,-100.00000000000001 -1.8369701987210297e-14,-1.4210854715202004e-14" stroke="#000" stroke-linecap="round" stroke-linejoin="round" stroke-width="3.0"/><polyline fill="none" points="124.99999999999999,1.6405315263481827e-14 225.0,4.089825124642889e-14 225.00000000000003,-99.99999999999996 125.00000000000003,-100.0 124.99999999999999,-0.0" stroke="#000" stroke-linecap="round" stroke-linejoin="round" stroke-width="3.0"/><polyline fill="none" points="250.0,6.123233995736766e-14 350.0,1.1021821192326178e-13 350.00000000000006,-99.99999999999989 250.00000000000006,-99.99999999999994 250.0,5.684341886080802e-14" stroke="#000" stroke-linecap="round" stroke-linejoin="round" stroke-width="3.0"/><polyline fill="none" points="375.0,1.4869192879685953e-13 475.0,2.2217073674570072e-13 475.00000000000006,-99.99999999999977 375.00000000000006,-99.99999999999986 374.99999999999994,1.4210854715202004e-13" stroke="#000" stroke-linecap="round" stroke-linejoin="round" stroke-width="3.0"/><line fill="none" stroke="none" stroke-linecap="round" stroke-width="2.0" x1="0.0" x2="0.0" y1="0.0" y2="0.0"/><polygon fill="none" fill-rule="evenodd" points="0.0,0.0 0.0,0.0 0.0,0.0" stroke-linejoin="round"/></svg>