<?xml version="1.0" ?><!DOCTYPE svg  PUBLIC '-//W3C//DTD SVG 1.1//EN'  'http://www.w3.org/Graphics/SVG/1.1/DTD/svg11.dtd'><svg height="177.000" viewBox="-83.000 -93.000 177.000 177.000" width="177.000" xmlns="http://www.w3.org/2000/svg"><line fill="none" stroke="none" stroke-linecap="round" stroke-width="2.0" x1="0.0" x2="0.0" y1="0.0" y2="0.0"/><polyline fill="none" points="0.0,-0.0 10.0,-0.0 10.0,-10.0 -10.0,-10.000000000000002 -10.000000000000004,9.999999999999998 19.999999999999996,10.000000000000005 20.000000000000007,-19.999999999999993 -19.999999999999993,-20.000000000000007 -20.00000000000001,19.999999999999993 29.99999999999999,20.000000000000018 30.000000000000018,-29.999999999999982 -29.999999999999982,-30.000000000000018 -30.00000000000002,29.999999999999982 39.99999999999998,30.000000000000032 40.000000000000036,-39.99999999999997 -39.999999999999964,-40.00000000000004 -40.000000000000036,39.99999999999996 49.999999999999964,40.00000000000004 50.00000000000006,-49.99999999999996 -49.99999999999994,-50.00000000000007 -50.00000000000006,49.99999999999993 59.99999999999994,50.000000000000064 60.000000000000085,-59.999999999999936 -59.999999999999915,-60.0000000000001 -60.000000000000085,59.9999999999999 69.99999999999991,60.00000000000009 70.00000000000011,-69.99999999999991 -69.99999999999989,-70.00000000000014 -70.00000000000011,69.99999999999986 79.99999999999989,70.00000000000011 80.00000000000016,-79.99999999999989" stroke="#000" stroke-linecap="round" stroke-linejoin="round" stroke-width="3.0"/><polygon fill="none" fill-rule="evenodd" points="0.0,0.0 0.0,0.0 0.0,0.0" stroke-linejoin="round"/></svg>