<?xml version="1.0" ?><!DOCTYPE svg  PUBLIC '-//W3C//DTD SVG 1.1//EN'  'http://www.w3.org/Graphics/SVG/1.1/DTD/svg11.dtd'><svg height="396.000" viewBox="-203.000 -190.000 380.000 396.000" width="380.000" xmlns="http://www.w3.org/2000/svg"><line fill="none" stroke="none" stroke-linecap="round" stroke-width="2.0" x1="0.0" x2="0.0" y1="0.0" y2="0.0"/><line fill="none" stroke="#000" stroke-linecap="round" x1="0.0" x2="0.0" y1="-0.0" y2="-0.0"/><polyline fill="none" points="0.0,-0.0 0.0124828691844,-0.000654199453037 0.0373459165686,-0.00326741103473" stroke="#000" stroke-linecap="round" stroke-linejoin="round"/><polyline fill="none" points="0.0373459165686,-0.00326741103473 0.074384229341,-0.00913370347374 0.123291609378,-0.0195292880146 0.183661973521,-0.0357054783335" stroke="#000100" stroke-linecap="round" stroke-linejoin="round"/><polyline fill="none" points="0.183661973521,-0.0357054783335 0.254991212243,-0.0588817529117 0.336679499561,-0.0902389484969 0.428034045326,-0.130912612804" stroke="#000200" stroke-linecap="round" stroke-linejoin="round"/><polyline fill="none" points="0.428034045326,-0.130912612804 0.528272279297,-0.181986544025 0.63652545477,-0.244486544025" stroke="#000300" stroke-linecap="round" stroke-linejoin="round"/><polyline fill="none" points="0.63652545477,-0.244486544025 0.751842657862,-0.31937441134 0.873195207019,-0.407542199184 0.999481425755,-0.509806762729" stroke="#000400" stroke-linecap="round" stroke-linejoin="round"/><polyline fill="none" points="0.999481425755,-0.509806762729 1.12953177021,-0.626904618842 1.26211429169,-0.759487140314 1.39594041296,-0.90811610541" stroke="#000500" stroke-linecap="round" stroke-linejoin="round"/><polyline fill="none" points="1.39594041296,-0.90811610541 1.52967099606,-1.07325962222 1.66192267782,-1.25528844595 1.79127444864,-1.45447270584" stroke="#000600" stroke-linecap="round" stroke-linejoin="round"/><polyline fill="none" points="1.79127444864,-1.45447270584 1.91627444864,-1.67097905679 2.03544695482,-1.90486826939 2.14729953167,-2.15609327024" stroke="#000700" stroke-linecap="round" stroke-linejoin="round"/><polyline fill="none" points="2.14729953167,-2.15609327024 2.25033031716,-2.42449764286 2.34303541547,-2.70981459774" stroke="#000800" stroke-linecap="round" stroke-linejoin="round"/><polyline fill="none" points="2.34303541547,-2.70981459774 2.42391636707,-3.01166641846 2.49148766658,-3.3295643887 2.54428429853,-3.66290920365" stroke="#000900" stroke-linecap="round" stroke-linejoin="round"/><polyline fill="none" points="2.54428429853,-3.66290920365 2.58086926068,-4.01099186703 2.59984104482,-4.37299507338 2.59984104482,-4.74799507338" stroke="#000a00" stroke-linecap="round" stroke-linejoin="round"/><polyline fill="none" points="2.59984104482,-4.74799507338 2.57956086177,-5.13496401809 2.53774947646,-5.53277277624 2.47322025964,-5.94019421674" stroke="#000b00" stroke-linecap="round" stroke-linejoin="round"/><polyline fill="none" points="2.47322025964,-5.94019421674 2.38485779104,-6.35590694705 2.27162445881,-6.77849949605 2.13256681134,-7.20647492838" stroke="#000c00" stroke-linecap="round" stroke-linejoin="round"/><polyline fill="none" points="2.13256681134,-7.20647492838 1.96682163467,-7.63825587564 1.77362172921,-8.07218996802 1.55230136059,-8.50655564856" stroke="#000d00" stroke-linecap="round" stroke-linejoin="round"/><polyline fill="none" points="1.55230136059,-8.50655564856 1.30230136059,-8.93956835045 1.02317385514,-9.36938701652" stroke="#000e00" stroke-linecap="round" stroke-linejoin="round"/><polyline fill="none" points="1.02317385514,-9.36938701652 0.714586597689,-9.79412093857 0.3763268875,-10.2118368929 0.00830505400242,-10.6205665469" stroke="#000f00" stroke-linecap="round" stroke-linejoin="round"/><polyline fill="none" points="0.00830505400242,-10.6205665469 -0.389442510415,-11.0183141113 -0.816750785065,-11.4030642099 -1.27332403742,-11.7727899397" stroke="#001000" stroke-linecap="round" stroke-linejoin="round"/><polyline fill="none" points="-1.27332403742,-11.7727899397 -1.75873423405,-12.1254610911 -2.27241995691,-12.4590525 -2.81368583428,-12.7715525" stroke="#010" stroke-linecap="round" stroke-linejoin="round"/><polyline fill="none" points="-2.81368583428,-12.7715525 -3.38170249345,-13.0609714436 -3.97550704092,-13.3253502616 -4.59400407347,-13.5627690282" stroke="#001200" stroke-linecap="round" stroke-linejoin="round"/><polyline fill="none" points="-4.59400407347,-13.5627690282 -5.23596722197,-13.7713554994 -5.90004122754,-13.9492935929 -6.58474454806,-14.0948317764" stroke="#001300" stroke-linecap="round" stroke-linejoin="round"/><polyline fill="none" points="-6.58474454806,-14.0948317764 -7.28847249073,-14.2062913328 -8.00950086487,-14.2820744687" stroke="#001400" stroke-linecap="round" stroke-linejoin="round"/><polyline fill="none" points="-8.00950086487,-14.2820744687 -8.74599014675,-14.3206722364 -9.49599014675,-14.3206722364" stroke="#001500" stroke-linecap="round" stroke-linejoin="round"/><line fill="none" stroke="#001500" stroke-linecap="round" stroke-width="2.0" x1="-9.49599014675" x2="-10.257445167" y1="-14.3206722364" y2="-14.2807660697"/><polyline fill="none" points="-10.257445167,-14.2807660697 -11.0281996359,-14.1997565107 -11.8060042041,-14.0765643695 -12.5885222847,-13.9102350168" stroke="#001600" stroke-linecap="round" stroke-linejoin="round" stroke-width="2.0"/><polyline fill="none" points="-12.5885222847,-13.9102350168 -13.3733370186,-13.6999445427 -14.1579586445,-13.4450055223 -14.9398322517,-13.1448723646" stroke="#001700" stroke-linecap="round" stroke-linejoin="round" stroke-width="2.0"/><polyline fill="none" points="-14.9398322517,-13.1448723646 -15.7163458907,-12.799146218 -16.4848390178,-12.407579412 -17.2426112461,-11.970079412" stroke="#001800" stroke-linecap="round" stroke-linejoin="round" stroke-width="2.0"/><polyline fill="none" points="-17.2426112461,-11.970079412 -17.9869313752,-11.4867122684 -18.7150466701,-10.9577055413" stroke="#001900" stroke-linecap="round" stroke-linejoin="round" stroke-width="2.0"/><polyline fill="none" points="-18.7150466701,-10.9577055413 -19.42419236,-10.3834506845 -20.1116013235,-9.7645048736 -20.7745139309,-9.10159226624" stroke="#001a00" stroke-linecap="round" stroke-linejoin="round" stroke-width="2.0"/><polyline fill="none" points="-20.7745139309,-9.10159226624 -21.4101880069,-8.39560468203 -22.0159088833,-7.64760169413 -22.5889995043,-6.85881012462" stroke="#001b00" stroke-linecap="round" stroke-linejoin="round" stroke-width="2.0"/><polyline fill="none" points="-22.5889995043,-6.85881012462 -23.1268305514,-6.03062293877 -23.6268305514,-5.16459753499 -24.0864959324,-4.26245342925" stroke="#001c00" stroke-linecap="round" stroke-linejoin="round" stroke-width="2.0"/><polyline fill="none" points="-24.0864959324,-4.26245342925 -24.5034009915,-3.32606933516 -24.8752077392,-2.35747964267 -25.1996755833,-1.35887030056" stroke="#001d00" stroke-linecap="round" stroke-linejoin="round" stroke-width="2.0"/><polyline fill="none" points="-25.1996755833,-1.35887030056 -25.4746708187,-0.332574110129 -25.6981758863,0.71893456066 -25.868298367,1.79304563106" stroke="#001e00" stroke-linecap="round" stroke-linejoin="round" stroke-width="2.0"/><polyline fill="none" points="-25.868298367,1.79304563106 -25.9832796766,2.88701971596 -26.041503428,3.99799507338" stroke="#001f00" stroke-linecap="round" stroke-linejoin="round" stroke-width="2.0"/><line fill="none" stroke="#002000" stroke-linecap="round" stroke-width="2.0" x1="-26.041503428" x2="-26.041503428" y1="3.99799507338" y2="5.12299507338"/><polyline fill="none" points="-26.041503428,5.12299507338 -25.9819712777,6.25893616916 -25.861763545,7.40263634883" stroke="#002000" stroke-linecap="round" stroke-linejoin="round" stroke-width="3.0"/><polyline fill="none" points="-25.861763545,7.40263634883 -25.6799084794,8.55082404478 -25.4356122426,9.70014747564 -25.1282646266,10.8471843944" stroke="#002100" stroke-linecap="round" stroke-linejoin="round" stroke-width="3.0"/><polyline fill="none" points="-25.1282646266,10.8471843944 -24.7574442333,11.9884522139 -24.3229230945,13.120418481 -23.8246707067,14.2395116667" stroke="#020" stroke-linecap="round" stroke-linejoin="round" stroke-width="3.0"/><polyline fill="none" points="-23.8246707067,14.2395116667 -23.2628574633,15.3421322403 -22.6378574633,16.4246639951 -21.9502506816,17.4834855871" stroke="#002300" stroke-linecap="round" stroke-linejoin="round" stroke-width="3.0"/><polyline fill="none" points="-21.9502506816,17.4834855871 -21.2008244849,18.5149822549 -20.3905744815,19.5155576803 -19.5207046932,20.4816459534" stroke="#002400" stroke-linecap="round" stroke-linejoin="round" stroke-width="3.0"/><polyline fill="none" points="-19.5207046932,20.4816459534 -18.5926270429,21.4097236037 -17.6079601491,22.2963216572" stroke="#002500" stroke-linecap="round" stroke-linejoin="round" stroke-width="3.0"/><polyline fill="none" points="-17.6079601491,22.2963216572 -16.5685274257,23.1380376802 -15.4763544833,23.9315477708 -14.3336658345,24.673618456" stroke="#002600" stroke-linecap="round" stroke-linejoin="round" stroke-width="3.0"/><polyline fill="none" points="-14.3336658345,24.673618456 -13.1428809042,25.361118456 -11.9066093519,25.9910302744 -10.6276457112,26.5604615747" stroke="#002700" stroke-linecap="round" stroke-linejoin="round" stroke-width="3.0"/><polyline fill="none" points="-10.6276457112,26.5604615747 -9.30896335881,27.0666563034 -7.95370782309,27.5070055204 -6.5651894478,27.8790578977" stroke="#002800" stroke-linecap="round" stroke-linejoin="round" stroke-width="3.0"/><polyline fill="none" points="-6.5651894478,27.8790578977 -5.14687542674,28.1805298494 -3.70238122862,28.4093152545 -2.23546143295,28.5634947379" stroke="#002900" stroke-linecap="round" stroke-linejoin="round" stroke-width="3.0"/><polyline fill="none" points="-2.23546143295,28.5634947379 -0.75,28.6413444728 0.75,28.6413444728" stroke="#002a00" stroke-linecap="round" stroke-linejoin="round" stroke-width="3.0"/><polyline fill="none" points="0.75,28.6413444728 2.26042717132,28.562186339 3.77707306175,28.4027804325 5.29564388542,28.1622624425" stroke="#002b00" stroke-linecap="round" stroke-linejoin="round" stroke-width="4.0"/><polyline fill="none" points="5.29564388542,28.1622624425 6.81177266656,27.8399993217 8.32103177013,27.4355945637 9.8189457833,26.9488927976" stroke="#002c00" stroke-linecap="round" stroke-linejoin="round" stroke-width="4.0"/><polyline fill="none" points="9.8189457833,26.9488927976 11.3010047104,26.3799836777 12.7626774426,25.7292050488 14.1994254628,24.9971453679" stroke="#002d00" stroke-linecap="round" stroke-linejoin="round" stroke-width="4.0"/><polyline fill="none" points="14.1994254628,24.9971453679 15.606716744,24.1846453679 16.980039799,23.2927989481 18.3149178397,22.3229532818" stroke="#002e00" stroke-linecap="round" stroke-linejoin="round" stroke-width="4.0"/><polyline fill="none" points="18.3149178397,22.3229532818 19.6069230006,21.2767081317 20.8516905833,20.155914366 22.0449332766,18.9626716728" stroke="#002f00" stroke-linecap="round" stroke-linejoin="round" stroke-width="4.0"/><polyline fill="none" points="22.0449332766,18.9626716728 23.1824553074,17.6993254695 24.2601664771,16.3684630105" stroke="#003000" stroke-linecap="round" stroke-linejoin="round" stroke-width="4.0"/><polyline fill="none" points="24.2601664771,16.3684630105 25.2740960373,14.9729086952 26.2204063606,13.5157185834 27.0954063606,12.0001741268" stroke="#003100" stroke-linecap="round" stroke-linejoin="round" stroke-width="4.0"/><polyline fill="none" points="27.0954063606,12.0001741268 27.8955646164,10.4297751279 28.6175221578,8.80823194056 29.2581048677,7.1394569282" stroke="#003200" stroke-linecap="round" stroke-linejoin="round" stroke-width="4.0"/><polyline fill="none" points="29.2581048677,7.1394569282 29.8143354575,5.42755519887 30.2834449768,3.67681463872 30.6628838125,1.89169526738" stroke="#030" stroke-linecap="round" stroke-linejoin="round" stroke-width="4.0"/><polyline fill="none" points="30.6628838125,1.89169526738 30.950332142,0.0768179415349 31.1437097991,-1.7630475649 31.2411855176,-3.62299507338" stroke="#003400" stroke-linecap="round" stroke-linejoin="round" stroke-width="4.0"/><line fill="none" stroke="#003500" stroke-linecap="round" stroke-width="4.0" x1="31.2411855176" x2="31.2411855176" y1="-3.62299507338" y2="-5.49799507338"/><polyline fill="none" points="31.2411855176,-5.49799507338 31.1424014002,-7.38290832023 30.94379732,-9.27249992143" stroke="#003500" stroke-linecap="round" stroke-linejoin="round" stroke-width="5.0"/><polyline fill="none" points="30.94379732,-9.27249992143 30.6446164056,-11.1614538728 30.2443864008,-13.0443880042" stroke="#003600" stroke-linecap="round" stroke-linejoin="round" stroke-width="5.0"/><polyline fill="none" points="30.2443864008,-13.0443880042 29.7429245009,-14.9158692927 29.1403413618,-16.7704294994 28.4370442609,-18.6025810864" stroke="#003700" stroke-linecap="round" stroke-linejoin="round" stroke-width="5.0"/><polyline fill="none" points="28.4370442609,-18.6025810864 27.6337393908,-20.4068333653 26.7314332725,-22.1777088321 25.7314332725,-23.9097596397" stroke="#003800" stroke-linecap="round" stroke-linejoin="round" stroke-width="5.0"/><polyline fill="none" points="25.7314332725,-23.9097596397 24.6353472146,-25.5975841577 23.4450820787,-27.2358435713 22.1628417819,-28.8192784677" stroke="#003900" stroke-linecap="round" stroke-linejoin="round" stroke-width="5.0"/><polyline fill="none" points="22.1628417819,-28.8192784677 20.7911240389,-30.34272536 19.3327163027,-31.8011330962 17.7906907898,-33.1895791044" stroke="#003a00" stroke-linecap="round" stroke-linejoin="round" stroke-width="5.0"/><polyline fill="none" points="17.7906907898,-33.1895791044 16.1683985953,-34.5032854207 14.4694629071,-35.7376344505" stroke="#003b00" stroke-linecap="round" stroke-linejoin="round" stroke-width="5.0"/><polyline fill="none" points="14.4694629071,-35.7376344505 12.6977713323,-36.888184412 10.8574673493,-37.950684412 8.95294090382,-38.9210891052" stroke="#003c00" stroke-linecap="round" stroke-linejoin="round" stroke-width="5.0"/><polyline fill="none" points="8.95294090382,-38.9210891052 6.98881816988,-39.7955728878 4.96995049758,-40.5705435787 2.90140257464,-41.2426555414" stroke="#003d00" stroke-linecap="round" stroke-linejoin="round" stroke-width="5.0"/><polyline fill="none" points="2.90140257464,-41.2426555414 0.788439829635,-41.8088222026 -1.36348489198,-42.2662279224 -3.54874534555,-42.6123391763" stroke="#003e00" stroke-linecap="round" stroke-linejoin="round" stroke-width="5.0"/><polyline fill="none" points="-3.54874534555,-42.6123391763 -5.76155656274,-42.8449150071 -7.99599014675,-42.9620167092 -10.2459901468,-42.9620167092" stroke="#003f00" stroke-linecap="round" stroke-linejoin="round" stroke-width="5.0"/><polyline fill="none" points="-10.2459901468,-42.9620167092 -12.5053894691,-42.8436066082 -14.7679267811,-42.6058043542 -17.0272638602,-42.2479605154" stroke="#004000" stroke-linecap="round" stroke-linejoin="round" stroke-width="6.0"/><polyline fill="none" points="-17.0272638602,-42.2479605154 -19.2770033419,-41.7697636266 -21.5107068152,-41.1712445848" stroke="#004100" stroke-linecap="round" stroke-linejoin="round" stroke-width="6.0"/><polyline fill="none" points="-21.5107068152,-41.1712445848 -23.7219132156,-40.4527800728 -25.9041574625,-39.6150949908 -28.050989288,-38.6592638795" stroke="#004200" stroke-linecap="round" stroke-linejoin="round" stroke-width="6.0"/><polyline fill="none" points="-28.050989288,-38.6592638795 -30.1559922014,-37.5867113239 -32.2128025354,-36.3992113239 -34.2151285163,-35.0988856278" stroke="#004300" stroke-linecap="round" stroke-linejoin="round" stroke-width="6.0"/><polyline fill="none" points="-34.2151285163,-35.0988856278 -36.1567693028,-33.6882010223 -38.0316339348,-32.1699655789 -39.8337601366,-30.5473238585" stroke="#040" stroke-linecap="round" stroke-linejoin="round" stroke-width="6.0"/><polyline fill="none" points="-39.8337601366,-30.5473238585 -41.5573329158,-28.8237510793 -43.1967029013,-27.0030462569 -44.7464043643,-25.0893243268" stroke="#004500" stroke-linecap="round" stroke-linejoin="round" stroke-width="6.0"/><polyline fill="none" points="-44.7464043643,-25.0893243268 -46.2011728637,-23.0870072658 -47.5559624633,-21.000814228 -48.8059624633,-18.8357507185" stroke="#004600" stroke-linecap="round" stroke-linejoin="round" stroke-width="6.0"/><polyline fill="none" points="-48.8059624633,-18.8357507185 -49.9466135939,-16.5970968265 -50.9736236177,-14.290394546" stroke="#004700" stroke-linecap="round" stroke-linejoin="round" stroke-width="6.0"/><polyline fill="none" points="-50.9736236177,-14.290394546 -51.8829822897,-11.9214342137 -52.6709756253,-9.49624009717 -53.3341994284,-7.02105516731" stroke="#004800" stroke-linecap="round" stroke-linejoin="round" stroke-width="6.0"/><polyline fill="none" points="-53.3341994284,-7.02105516731 -53.8695720323,-4.50232509542 -54.2743462105,-1.94668151413 -54.546120215,0.63907541383" stroke="#004900" stroke-linecap="round" stroke-linejoin="round" stroke-width="6.0"/><polyline fill="none" points="-54.546120215,0.63907541383 -54.6828479007,3.24799507338 -54.6828479007,5.87299507338" stroke="#004a00" stroke-linecap="round" stroke-linejoin="round" stroke-width="6.0"/><line fill="none" stroke="#004a00" stroke-linecap="round" stroke-width="7.0" x1="-54.6828479007" x2="-54.5448118161" y1="5.87299507338" y2="8.50688047129"/><polyline fill="none" points="-54.5448118161,8.50688047129 -54.2678113885,11.142363494 -53.8513046253,13.7720837009 -53.2951408524,16.3886285328" stroke="#004b00" stroke-linecap="round" stroke-linejoin="round" stroke-width="7.0"/><polyline fill="none" points="-53.2951408524,16.3886285328 -52.5995646687,18.984554191 -51.7652187838,21.552406785" stroke="#004c00" stroke-linecap="round" stroke-linejoin="round" stroke-width="7.0"/><polyline fill="none" points="-51.7652187838,21.552406785 -50.7931457207,24.0847436918 -49.6847883683,26.5741550639 -48.4419893753,29.0132854239" stroke="#004d00" stroke-linecap="round" stroke-linejoin="round" stroke-width="7.0"/><polyline fill="none" points="-48.4419893753,29.0132854239 -47.0669893753,31.3948552843 -45.5624240411,33.7116827282 -43.9313199659,35.9567048876" stroke="#004e00" stroke-linecap="round" stroke-linejoin="round" stroke-width="7.0"/><polyline fill="none" points="-43.9313199659,35.9567048876 -42.1770893759,38.1229992552 -40.3035236781,40.2038047665 -38.314785856,42.1925425886" stroke="#004f00" stroke-linecap="round" stroke-linejoin="round" stroke-width="7.0"/><polyline fill="none" points="-38.314785856,42.1925425886 -36.215401724,44.0828365516 -34.0102500584,45.8685331612 -31.7045516244,47.5437211302" stroke="#005000" stroke-linecap="round" stroke-linejoin="round" stroke-width="7.0"/><polyline fill="none" points="-31.7045516244,47.5437211302 -29.3038571237,49.1027503679 -26.8140340878,50.5402503679 -24.2412527492,51.8511479359" stroke="#005100" stroke-linecap="round" stroke-linejoin="round" stroke-width="7.0"/><polyline fill="none" points="-24.2412527492,51.8511479359 -21.591970922,53.0306842009 -18.8729179299,54.0744308539" stroke="#005200" stroke-linecap="round" stroke-linejoin="round" stroke-width="7.0"/><polyline fill="none" points="-18.8729179299,54.0744308539 -16.0910776197,54.9783055625 -13.253670505,55.7385865074 -10.3681350828,56.3519259954" stroke="#005300" stroke-linecap="round" stroke-linejoin="round" stroke-width="7.0"/><polyline fill="none" points="-10.3681350828,56.3519259954 -7.4421083738,56.815363098 -4.48340573508,57.1263352763 -1.5,57.2826889455" stroke="#005400" stroke-linecap="round" stroke-linejoin="round" stroke-width="7.0"/><line fill="none" stroke="#050" stroke-linecap="round" stroke-width="7.0" x1="-1.5" x2="1.5" y1="57.2826889455" y2="57.2826889455"/><polyline fill="none" points="1.5,57.2826889455 4.50837147345,57.1250268774 7.51680020694,56.808828276" stroke="#050" stroke-linecap="round" stroke-linejoin="round" stroke-width="8.0"/><polyline fill="none" points="7.51680020694,56.808828276 10.5169035415,56.3336585884 13.5002537237,55.6995279314 16.4584015667,54.9068946058" stroke="#005600" stroke-linecap="round" stroke-linejoin="round" stroke-width="8.0"/><polyline fill="none" points="16.4584015667,54.9068946058 19.3829003544,53.9566673481 22.2653299212,52.8502063039 25.0973208399,51.5893227103" stroke="#005700" stroke-linecap="round" stroke-linejoin="round" stroke-width="8.0"/><polyline fill="none" points="25.0973208399,51.5893227103 27.8705786464,50.1762772799 30.5769080332,48.6137772799" stroke="#005800" stroke-linecap="round" stroke-linejoin="round" stroke-width="8.0"/><polyline fill="none" points="30.5769080332,48.6137772799 33.2082369401,46.9049723075 35.7566404724,45.0534487628 38.2143645755,43.0632230261" stroke="#005900" stroke-linecap="round" stroke-linejoin="round" stroke-width="8.0"/><polyline fill="none" points="38.2143645755,43.0632230261 40.5738493964,40.9387333509 42.8277522615,38.6848304859 44.9689702018,36.3067670444" stroke="#005a00" stroke-linecap="round" stroke-linejoin="round" stroke-width="8.0"/><polyline fill="none" points="44.9689702018,36.3067670444 46.9906619581,33.8101856432 48.8862693967,31.2011058363 50.6495382726,28.4859098726" stroke="#005b00" stroke-linecap="round" stroke-linejoin="round" stroke-width="8.0"/><polyline fill="none" points="50.6495382726,28.4859098726 52.2745382726,25.6713273103 53.755682278,22.7644185251 55.087744784,19.7725571514" stroke="#005c00" stroke-linecap="round" stroke-linejoin="round" stroke-width="8.0"/><polyline fill="none" points="55.087744784,19.7725571514 56.2658794182,16.7034114993 57.2856354996,13.5649249955" stroke="#005d00" stroke-linecap="round" stroke-linejoin="round" stroke-width="8.0"/><polyline fill="none" points="57.2856354996,13.5649249955 58.1429735865,10.3652956959 58.8342799585,7.11295492346 59.3563799855,3.81654508672" stroke="#005e00" stroke-linecap="round" stroke-linejoin="round" stroke-width="8.0"/><polyline fill="none" points="59.3563799855,3.81654508672 59.7065503375,0.484896737236 59.8825299904,-2.87299507338 59.8825299904,-6.24799507338" stroke="#005f00" stroke-linecap="round" stroke-linejoin="round" stroke-width="8.0"/><polyline fill="none" points="59.8825299904,-6.24799507338 59.7052419386,-9.63085262236 59.3498451635,-13.0122270666 58.8160125515,-16.3827135289" stroke="#006000" stroke-linecap="round" stroke-linejoin="round" stroke-width="9.0"/><polyline fill="none" points="58.8160125515,-16.3827135289 58.1039150105,-19.7328690614 57.2142245429,-23.0532390893 56.1481159123,-26.3343840705" stroke="#006100" stroke-linecap="round" stroke-linejoin="round" stroke-width="9.0"/><polyline fill="none" points="56.1481159123,-26.3343840705 54.907266887,-29.5669062972 53.4938570523,-32.7414767625 51.9105651845,-35.8488620157" stroke="#006200" stroke-linecap="round" stroke-linejoin="round" stroke-width="9.0"/><polyline fill="none" points="51.9105651845,-35.8488620157 50.1605651845,-38.8799509289 48.247520574,-41.8257812988" stroke="#006300" stroke-linecap="round" stroke-linejoin="round" stroke-width="9.0"/><polyline fill="none" points="48.247520574,-41.8257812988 46.1755775597,-44.677566204 43.9493566763,-47.4267200426 41.5739430238,-50.0648841731" stroke="#006400" stroke-linecap="round" stroke-linejoin="round" stroke-width="9.0"/><polyline fill="none" points="41.5739430238,-50.0648841731 39.0548751158,-52.5839520811 36.3981323647,-54.9760939988 33.610121228,-57.2337809017" stroke="#006500" stroke-linecap="round" stroke-linejoin="round" stroke-width="9.0"/><polyline fill="none" points="33.610121228,-57.2337809017 30.6976600482,-59.3498078099 27.6679626215,-61.3173163239 24.5286205328,-63.1298163239" stroke="#060" stroke-linecap="round" stroke-linejoin="round" stroke-width="9.0"/><polyline fill="none" points="24.5286205328,-63.1298163239 21.2875843011,-64.7812067667 17.9531433807,-66.265795514 14.5339050686,-67.5783181292" stroke="#006700" stroke-linecap="round" stroke-linejoin="round" stroke-width="9.0"/><polyline fill="none" points="14.5339050686,-67.5783181292 11.0387723713,-68.7139555835 7.47692088681,-69.6683508123 3.8577747641,-70.4376240683" stroke="#006800" stroke-linecap="round" stroke-linejoin="round" stroke-width="9.0"/><polyline fill="none" points="3.8577747641,-70.4376240683 0.190981799638,-71.0183870198 -3.51361226061,-71.4077555455" stroke="#006900" stroke-linecap="round" stroke-linejoin="round" stroke-width="9.0"/><polyline fill="none" points="-3.51361226061,-71.4077555455 -7.24599014675,-71.6033611819 -10.9959901468,-71.6033611819" stroke="#006a00" stroke-linecap="round" stroke-linejoin="round" stroke-width="9.0"/><line fill="none" stroke="#006a00" stroke-linecap="round" stroke-width="10.0" x1="-10.9959901468" x2="-14.7533337713" y1="-71.6033611819" y2="-71.4064471466"/><polyline fill="none" points="-14.7533337713,-71.4064471466 -18.5076539263,-71.0118521977 -22.2485235163,-70.4193566614 -25.9654843991,-69.6292922363" stroke="#006b00" stroke-linecap="round" stroke-linejoin="round" stroke-width="10.0"/><polyline fill="none" points="-25.9654843991,-69.6292922363 -29.6480766118,-68.6425446268 -33.2858677866,-67.4605546233 -36.8684826733,-66.085317617" stroke="#006c00" stroke-linecap="round" stroke-linejoin="round" stroke-width="10.0"/><polyline fill="none" points="-36.8684826733,-66.085317617 -40.3856326852,-64.5193815411 -43.8271453849,-62.7658432359 -47.1829938246,-60.8283432359" stroke="#006d00" stroke-linecap="round" stroke-linejoin="round" stroke-width="10.0"/><polyline fill="none" points="-47.1829938246,-60.8283432359 -50.4433256575,-58.7110589873 -53.5984919355,-56.4186965033" stroke="#006e00" stroke-linecap="round" stroke-linejoin="round" stroke-width="10.0"/><polyline fill="none" points="-53.5984919355,-56.4186965033 -56.6390755097,-53.9564804733 -59.5559189497,-51.3301428434 -62.3401519007,-48.5459098924" stroke="#006f00" stroke-linecap="round" stroke-linejoin="round" stroke-width="10.0"/><polyline fill="none" points="-62.3401519007,-48.5459098924 -64.9832177958,-45.6104878318 -67.4768998453,-42.5310469595 -69.8133462232,-39.3152044069" stroke="#007000" stroke-linecap="round" stroke-linejoin="round" stroke-width="10.0"/><polyline fill="none" points="-69.8133462232,-39.3152044069 -71.9850943753,-35.9710055172 -73.9850943753,-32.5069039021 -75.8067312555,-28.9317402238" stroke="#007100" stroke-linecap="round" stroke-linejoin="round" stroke-width="10.0"/><polyline fill="none" points="-75.8067312555,-28.9317402238 -77.4438462439,-25.2547197568 -78.8907568402,-21.4853887848 -80.1422756674,-17.6336098938" stroke="#007200" stroke-linecap="round" stroke-linejoin="round" stroke-width="10.0"/><polyline fill="none" points="-80.1422756674,-17.6336098938 -81.1937280381,-13.7095362245 -82.0409681782,-9.72358475149 -82.680394054,-5.68640865931" stroke="#007300" stroke-linecap="round" stroke-linejoin="round" stroke-width="10.0"/><polyline fill="none" points="-82.680394054,-5.68640865931 -83.1089607534,-1.6088688883 -83.3241923735,2.49799507338" stroke="#007400" stroke-linecap="round" stroke-linejoin="round" stroke-width="10.0"/><line fill="none" stroke="#007500" stroke-linecap="round" stroke-width="10.0" x1="-83.3241923735" x2="-83.3241923735" y1="2.49799507338" y2="6.62299507338"/><polyline fill="none" points="-83.3241923735,6.62299507338 -83.1076523545,10.7548247734 -82.673859232,14.8820906392" stroke="#007500" stroke-linecap="round" stroke-linejoin="round" stroke-width="11.0"/><polyline fill="none" points="-82.673859232,14.8820906392 -82.0227007712,18.9933433569 -81.1546694621,23.07710959 -80.0708647107,27.1219239876" stroke="#007600" stroke-linecap="round" stroke-linejoin="round" stroke-width="11.0"/><polyline fill="none" points="-80.0708647107,27.1219239876 -78.7729933343,31.116361356 -77.2633683469,35.0490689026 -75.5449060299,38.9087984612" stroke="#070" stroke-linecap="round" stroke-linejoin="round" stroke-width="11.0"/><polyline fill="none" points="-75.5449060299,38.9087984612 -73.6211212872,42.6844386074 -71.4961212872,46.3650465735 -69.1745974005,49.9398798694" stroke="#007800" stroke-linecap="round" stroke-linejoin="round" stroke-width="11.0"/><polyline fill="none" points="-69.1745974005,49.9398798694 -66.6618154469,53.3984275203 -63.9636042703,56.7304408301 -61.086342663,59.9259635796" stroke="#007900" stroke-linecap="round" stroke-linejoin="round" stroke-width="11.0"/><polyline fill="none" points="-61.086342663,59.9259635796 -58.0369446691,62.9753615735 -54.8228432989,65.869351446" stroke="#007a00" stroke-linecap="round" stroke-linejoin="round" stroke-width="11.0"/><polyline fill="none" points="-54.8228432989,65.869351446 -51.4519726911,68.5990286422 -47.9327487656,71.1558944896 -44.2740484129,73.5318822799" stroke="#007b00" stroke-linecap="round" stroke-linejoin="round" stroke-width="11.0"/><polyline fill="none" points="-44.2740484129,73.5318822799 -40.4851872713,75.7193822799 -36.5758961465,77.7112655975 -32.5562961328,79.500906827" stroke="#007c00" stroke-linecap="round" stroke-linejoin="round" stroke-width="11.0"/><polyline fill="none" points="-32.5562961328,79.500906827 -28.4368725009,81.0822054044 -24.2284474163,82.4496056045 -19.9421515622,83.5981151172" stroke="#007d00" stroke-linecap="round" stroke-linejoin="round" stroke-width="11.0"/><polyline fill="none" points="-19.9421515622,83.5981151172 -15.5893947389,84.5233221413 -11.181835519,85.2214109415 -6.73135003721,85.6891758147" stroke="#007e00" stroke-linecap="round" stroke-linejoin="round" stroke-width="11.0"/><polyline fill="none" points="-6.73135003721,85.6891758147 -2.25,85.9240334183 2.25,85.9240334183" stroke="#007f00" stroke-linecap="round" stroke-linejoin="round" stroke-width="11.0"/><polyline fill="none" points="2.25,85.9240334183 6.75631577558,85.6878674158 11.2565273521,85.2148761195 15.7381631976,84.5050547344" stroke="#008000" stroke-linecap="round" stroke-linejoin="round" stroke-width="12.0"/><polyline fill="none" points="15.7381631976,84.5050547344 20.1887347809,83.5590565411 24.5957713634,82.3781946479 28.9468549254,80.9644418986" stroke="#008100" stroke-linecap="round" stroke-linejoin="round" stroke-width="12.0"/><polyline fill="none" points="28.9468549254,80.9644418986 33.229655132,79.32042893 37.4319642371,77.4494403719 41.5417318299,75.3554091919" stroke="#008200" stroke-linecap="round" stroke-linejoin="round" stroke-width="12.0"/><polyline fill="none" points="41.5417318299,75.3554091919 45.5470993224,73.0429091919 49.4364340813,70.517145667 53.1983631051,67.7839442438" stroke="#008300" stroke-linecap="round" stroke-linejoin="round" stroke-width="12.0"/><polyline fill="none" points="53.1983631051,67.7839442438 56.8218061504,64.8497379205 60.2960082095,61.7215523358 63.6105712463,58.406989299" stroke="#008400" stroke-linecap="round" stroke-linejoin="round" stroke-width="12.0"/><polyline fill="none" points="63.6105712463,58.406989299 66.7554850962,54.9142086193 69.721157439,51.2519082759" stroke="#008500" stroke-linecap="round" stroke-linejoin="round" stroke-width="12.0"/><polyline fill="none" points="69.721157439,51.2519082759 72.4984427561,47.4293029775 75.0786701845,43.4561011618 77.4536701845,39.3424804939" stroke="#008600" stroke-linecap="round" stroke-linejoin="round" stroke-width="12.0"/><polyline fill="none" points="77.4536701845,39.3424804939 79.6157999395,35.0990619224 81.5579674102,30.7368823622 83.2736539687,26.2673660703" stroke="#008700" stroke-linecap="round" stroke-linejoin="round" stroke-width="12.0"/><polyline fill="none" points="83.2736539687,26.2673660703 84.7569355417,21.7022947921 86.0025021962,17.0537767531 87.0056761044,12.3342145795" stroke="#080" stroke-linecap="round" stroke-linejoin="round" stroke-width="12.0"/><polyline fill="none" points="87.0056761044,12.3342145795 87.762427829,7.5562722319 88.2693908759,2.73284103937 88.5238744631,-2.12299507338" stroke="#008900" stroke-linecap="round" stroke-linejoin="round" stroke-width="12.0"/><line fill="none" stroke="#008a00" stroke-linecap="round" stroke-width="12.0" x1="88.5238744631" x2="88.5238744631" y1="-2.12299507338" y2="-6.99799507338"/><polyline fill="none" points="88.5238744631,-6.99799507338 88.268082477,-11.8787969245 87.755893007,-16.7519542118" stroke="#008a00" stroke-linecap="round" stroke-linejoin="round" stroke-width="13.0"/><polyline fill="none" points="87.755893007,-16.7519542118 86.9874086975,-21.603973185 85.9634436202,-26.4213501186" stroke="#008b00" stroke-linecap="round" stroke-linejoin="round" stroke-width="13.0"/><polyline fill="none" points="85.9634436202,-26.4213501186 84.685524585,-31.1906088859 83.1558904628,-35.8983386415 81.3774895132,-40.531231508" stroke="#008c00" stroke-linecap="round" stroke-linejoin="round" stroke-width="13.0"/><polyline fill="none" points="81.3774895132,-40.531231508 79.3539747139,-45.0761201598 77.0896970965,-49.5200151992 74.5896970965,-53.8501422181" stroke="#008d00" stroke-linecap="round" stroke-linejoin="round" stroke-width="13.0"/><polyline fill="none" points="74.5896970965,-53.8501422181 71.8596939335,-58.0539784399 68.9060730407,-62.1192888367 65.7358715708,-66.0341616175" stroke="#008e00" stroke-linecap="round" stroke-linejoin="round" stroke-width="13.0"/><polyline fill="none" points="65.7358715708,-66.0341616175 62.3567620087,-69.7870429862 58.7770339289,-73.3667710659 55.0055739396,-76.7626088932" stroke="#008f00" stroke-linecap="round" stroke-linejoin="round" stroke-width="13.0"/><polyline fill="none" points="55.0055739396,-76.7626088932 51.0518438607,-79.9642763827 46.9258571894,-82.9619811694" stroke="#009000" stroke-linecap="round" stroke-linejoin="round" stroke-width="13.0"/><polyline fill="none" points="46.9258571894,-82.9619811694 42.6381539108,-85.7464482359 38.1997737164,-88.3089482359 33.6222276983,-90.6413244283" stroke="#009100" stroke-linecap="round" stroke-linejoin="round" stroke-width="13.0"/><polyline fill="none" points="33.6222276983,-90.6413244283 28.9174685915,-92.7360181401 24.0978596397,-94.5860926797 19.1761421679,-96.1852556256" stroke="#009200" stroke-linecap="round" stroke-linejoin="round" stroke-width="13.0"/><polyline fill="none" points="19.1761421679,-96.1852556256 14.165401944,-97.527879422 9.07903442017,-98.6090202143 3.93070894482,-99.4244348633" stroke="#009300" stroke-linecap="round" stroke-linejoin="round" stroke-width="13.0"/><polyline fill="none" points="3.93070894482,-99.4244348633 -1.26566795848,-99.9705960839 -6.49599014675,-100.244705655 -11.7459901468,-100.244705655" stroke="#009400" stroke-linecap="round" stroke-linejoin="round" stroke-width="13.0"/><polyline fill="none" points="-11.7459901468,-100.244705655 -17.0012780734,-99.969287685 -22.2473810715,-99.4179000412 -27.4697831724,-98.5907528073" stroke="#009500" stroke-linecap="round" stroke-linejoin="round" stroke-width="14.0"/><polyline fill="none" points="-27.4697831724,-98.5907528073 -32.6539654563,-97.488820846 -37.7854464084,-96.1138446689" stroke="#009600" stroke-linecap="round" stroke-linejoin="round" stroke-width="14.0"/><polyline fill="none" points="-37.7854464084,-96.1138446689 -42.8498223577,-94.4683291738 -47.8328078841,-92.5555402431 -52.7202760825,-90.3794992027" stroke="#009700" stroke-linecap="round" stroke-linejoin="round" stroke-width="14.0"/><polyline fill="none" points="-52.7202760825,-90.3794992027 -57.4982985685,-87.9449751478 -62.1531851138,-85.2574751478 -66.6715227986,-82.3232323467" stroke="#009800" stroke-linecap="round" stroke-linejoin="round" stroke-width="14.0"/><polyline fill="none" points="-66.6715227986,-82.3232323467 -71.0402145682,-79.1491919843 -75.2465170846,-75.7429953678 -79.2780777628,-72.1129618283" stroke="#090" stroke-linecap="round" stroke-linejoin="round" stroke-width="14.0"/><polyline fill="none" points="-79.2780777628,-72.1129618283 -83.1229708855,-68.2680687056 -86.7697326902,-64.2179294067 -90.2073953263,-59.9727695922" stroke="#009a00" stroke-linecap="round" stroke-linejoin="round" stroke-width="14.0"/><polyline fill="none" points="-90.2073953263,-59.9727695922 -93.4255195826,-55.543401548 -96.4142262872,-50.9411968064 -99.1642262872,-46.1780570856" stroke="#009b00" stroke-linecap="round" stroke-linejoin="round" stroke-width="14.0"/><polyline fill="none" points="-99.1642262872,-46.1780570856 -101.666848917,-41.266383621 -103.91406887,-36.2190449676" stroke="#009c00" stroke-linecap="round" stroke-linejoin="round" stroke-width="14.0"/><polyline fill="none" points="-103.91406887,-36.2190449676 -105.898531391,-31.0493433558 -107.613575709,-25.7709796904 -109.053256648,-20.3980172817" stroke="#009d00" stroke-linecap="round" stroke-linejoin="round" stroke-width="14.0"/><polyline fill="none" points="-109.053256648,-20.3980172817 -110.212364324,-14.9448444076 -111.086441898,-9.4261358045 -111.671801292,-3.85681319043" stroke="#009e00" stroke-linecap="round" stroke-linejoin="round" stroke-width="14.0"/><polyline fill="none" points="-111.671801292,-3.85681319043 -111.965536846,1.74799507338 -111.965536846,7.37299507338" stroke="#009f00" stroke-linecap="round" stroke-linejoin="round" stroke-width="14.0"/><line fill="none" stroke="#009f00" stroke-linecap="round" stroke-width="15.0" x1="-111.965536846" x2="-111.670492893" y1="7.37299507338" y2="13.0027690756"/><polyline fill="none" points="-111.670492893,13.0027690756 -111.079907075,18.6218177844 -110.194096917,24.214603013 -109.014198072,29.7655906472" stroke="#00a000" stroke-linecap="round" stroke-linejoin="round" stroke-width="15.0"/><polyline fill="none" points="-109.014198072,29.7655906472 -107.542164753,35.2592937842 -105.780767885,40.6803159271" stroke="#00a100" stroke-linecap="round" stroke-linejoin="round" stroke-width="15.0"/><polyline fill="none" points="-105.780767885,40.6803159271 -103.733590973,46.0133941134 -101.405023691,51.2434418584 -98.8002531992,56.355591791" stroke="#00a200" stroke-linecap="round" stroke-linejoin="round" stroke-width="15.0"/><polyline fill="none" points="-98.8002531992,56.355591791 -95.9252531992,61.3352378627 -92.7867707599,66.1680770105 -89.3923109279,70.840150153" stroke="#00a300" stroke-linecap="round" stroke-linejoin="round" stroke-width="15.0"/><polyline fill="none" points="-89.3923109279,70.840150153 -85.7501191647,75.337882405 -81.8691616479,79.6481223927 -77.7591034822,83.7581805584" stroke="#00a400" stroke-linecap="round" stroke-linejoin="round" stroke-width="15.0"/><polyline fill="none" points="-77.7591034822,83.7581805584 -73.4302848738,87.6558663404 -68.8936953238,91.3295241232 -64.1609459067,94.7680678491" stroke="#00a500" stroke-linecap="round" stroke-linejoin="round" stroke-width="15.0"/><polyline fill="none" points="-64.1609459067,94.7680678491 -59.2442397021,97.9610141919 -54.1563404549,100.898514192 -48.9105395437,103.571383259" stroke="#00a600" stroke-linecap="round" stroke-linejoin="round" stroke-width="15.0"/><polyline fill="none" points="-48.9105395437,103.571383259 -43.5206213436,105.971129453 -38.000827072,108.089979955" stroke="#00a700" stroke-linecap="round" stroke-linejoin="round" stroke-width="15.0"/><polyline fill="none" points="-38.000827072,108.089979955 -32.3658172129,109.920905647 -26.6306326193,111.457643727 -20.810654395,112.694718287" stroke="#00a800" stroke-linecap="round" stroke-linejoin="round" stroke-width="15.0"/><polyline fill="none" points="-20.810654395,112.694718287 -14.9215626642,113.627458785 -8.97929433934,114.252016353 -3.0,114.565377891" stroke="#00a900" stroke-linecap="round" stroke-linejoin="round" stroke-width="15.0"/><line fill="none" stroke="#0a0" stroke-linecap="round" stroke-width="15.0" x1="-3.0" x2="3.0" y1="114.565377891" y2="114.565377891"/><polyline fill="none" points="3.0,114.565377891 9.00426007771,114.250707954 14.9962544973,113.620923963" stroke="#0a0" stroke-linecap="round" stroke-linejoin="round" stroke-width="16.0"/><polyline fill="none" points="14.9962544973,113.620923963 20.9594228536,112.67645088 26.8772158381,111.418585151 32.73314116,109.84949469" stroke="#00ab00" stroke-linecap="round" stroke-linejoin="round" stroke-width="16.0"/><polyline fill="none" points="32.73314116,109.84949469 38.5108094965,107.972216449 44.1939803428,105.790651556 49.7666076344,103.309558033" stroke="#00ac00" stroke-linecap="round" stroke-linejoin="round" stroke-width="16.0"/><polyline fill="none" points="49.7666076344,103.309558033 55.2128850135,100.534541104 60.5172906117,97.4720411038" stroke="#00ad00" stroke-linecap="round" stroke-linejoin="round" stroke-width="16.0"/><polyline fill="none" points="60.5172906117,97.4720411038 65.6646312224,94.1293190264 70.6400857378,90.5144397248 75.4292477253,86.636252815" stroke="#00ae00" stroke-linecap="round" stroke-linejoin="round" stroke-width="16.0"/><polyline fill="none" points="75.4292477253,86.636252815 80.0181670226,82.5043713207 84.3933902312,78.1291481121 88.5419999906,73.5216501941" stroke="#00af00" stroke-linecap="round" stroke-linejoin="round" stroke-width="16.0"/><polyline fill="none" points="88.5419999906,73.5216501941 92.45165292,68.6936309086 96.1106161156,63.6575001186 99.5078020965,58.426292451" stroke="#00b000" stroke-linecap="round" stroke-linejoin="round" stroke-width="16.0"/><polyline fill="none" points="99.5078020965,58.426292451 102.632802096,53.0136336774 105.475917601,47.4337053197 108.028190036,41.701207573" stroke="#00b100" stroke-linecap="round" stroke-linejoin="round" stroke-width="16.0"/><polyline fill="none" points="108.028190036,41.701207573 110.281428519,35.8313206414 112.228235584,29.8396645887" stroke="#00b200" stroke-linecap="round" stroke-linejoin="round" stroke-width="16.0"/><polyline fill="none" points="112.228235584,29.8396645887 113.862030806,23.7422578103 115.17707225,17.5554742356 116.168475673,11.2959993771" stroke="#00b300" stroke-linecap="round" stroke-linejoin="round" stroke-width="16.0"/><polyline fill="none" points="116.168475673,11.2959993771 116.832231414,4.9807853415 117.165218936,-1.37299507338 117.165218936,-7.74799507338" stroke="#00b400" stroke-linecap="round" stroke-linejoin="round" stroke-width="16.0"/><polyline fill="none" points="117.165218936,-7.74799507338 116.830923015,-14.1267412266 116.16194085,-20.491681357 115.158804843,-26.825232841" stroke="#00b500" stroke-linecap="round" stroke-linejoin="round" stroke-width="17.0"/><polyline fill="none" points="115.158804843,-26.825232841 113.82297223,-33.1098311758 112.156824627,-39.3279786825 110.163665013,-45.4622932126" stroke="#00b600" stroke-linecap="round" stroke-linejoin="round" stroke-width="17.0"/><polyline fill="none" points="110.163665013,-45.4622932126 107.847712139,-51.4955567188 105.214092375,-57.4107635571 102.268829008,-63.1911683827" stroke="#00b700" stroke-linecap="round" stroke-linejoin="round" stroke-width="17.0"/><polyline fill="none" points="102.268829008,-63.1911683827 99.0188290084,-68.8203335073 95.4718672929,-74.2821755811" stroke="#00b800" stroke-linecap="round" stroke-linejoin="round" stroke-width="17.0"/><polyline fill="none" points="95.4718672929,-74.2821755811 91.6365685217,-79.5610114694 87.5223864652,-84.6416031924 83.1395809935,-89.5092017993" stroke="#00b900" stroke-linecap="round" stroke-linejoin="round" stroke-width="17.0"/><polyline fill="none" points="83.1395809935,-89.5092017993 78.499192742,-94.1495900508 73.6130155145,-98.5491237876 68.4935664934,-102.694771864" stroke="#00ba00" stroke-linecap="round" stroke-linejoin="round" stroke-width="17.0"/><polyline fill="none" points="68.4935664934,-102.694771864 63.1540543305,-106.574154529 57.6083452,-110.175580148 51.8709268999,-113.488080148" stroke="#0b0" stroke-linecap="round" stroke-linejoin="round" stroke-width="17.0"/><polyline fill="none" points="51.8709268999,-113.488080148 45.9568710956,-116.50144209 39.8817938023,-119.206240766 33.6618142107,-121.59386723" stroke="#00bc00" stroke-linecap="round" stroke-linejoin="round" stroke-width="17.0"/><polyline fill="none" points="33.6618142107,-121.59386723 27.3135119645,-123.656555668 20.8538830012,-125.387408032 14.3002940763,-126.78041636" stroke="#00bd00" stroke-linecap="round" stroke-linejoin="round" stroke-width="17.0"/><polyline fill="none" points="14.3002940763,-126.78041636 7.67043609001,-127.830482707 0.982276343656,-128.533436622" stroke="#00be00" stroke-linecap="round" stroke-linejoin="round" stroke-width="17.0"/><polyline fill="none" points="0.982276343656,-128.533436622 -5.74599014675,-128.886050127 -12.4959901468,-128.886050127" stroke="#00bf00" stroke-linecap="round" stroke-linejoin="round" stroke-width="17.0"/><line fill="none" stroke="#00bf00" stroke-linecap="round" stroke-width="18.0" x1="-12.4959901468" x2="-19.2492223755" y1="-128.886050127" y2="-128.532128223"/><polyline fill="none" points="-19.2492223755,-128.532128223 -25.9871082167,-127.823947885 -32.6910428284,-126.762148953 -39.3424465134,-125.348349456" stroke="#00c000" stroke-linecap="round" stroke-linejoin="round" stroke-width="18.0"/><polyline fill="none" points="-39.3424465134,-125.348349456 -45.922816205,-123.585144711 -52.4137769287,-121.476103724 -58.7971330949,-119.025762869" stroke="#00c100" stroke-linecap="round" stroke-linejoin="round" stroke-width="18.0"/><polyline fill="none" points="-58.7971330949,-119.025762869 -65.0549194798,-116.239616864 -71.169451752,-113.12410706 -77.123376403,-109.68660706" stroke="#00c200" stroke-linecap="round" stroke-linejoin="round" stroke-width="18.0"/><polyline fill="none" points="-77.123376403,-109.68660706 -82.8997199397,-105.935405706 -88.4819372009,-101.879687465" stroke="#00c300" stroke-linecap="round" stroke-linejoin="round" stroke-width="18.0"/><polyline fill="none" points="-88.4819372009,-101.879687465 -93.8539586595,-97.5295102622 -99.0002365759,-92.8957808131 -103.90578987,-87.9902275187" stroke="#00c400" stroke-linecap="round" stroke-linejoin="round" stroke-width="18.0"/><polyline fill="none" points="-103.90578987,-87.9902275187 -108.556247585,-82.8253709816 -112.937890807,-77.4144922249 -117.037692942,-71.7715986892" stroke="#00c500" stroke-linecap="round" stroke-linejoin="round" stroke-width="18.0"/><polyline fill="none" points="-117.037692942,-71.7715986892 -120.843358199,-65.9113880957 -124.343358199,-59.8492102692 -127.526966579,-53.6010270183" stroke="#00c600" stroke-linecap="round" stroke-linejoin="round" stroke-width="18.0"/><polyline fill="none" points="-127.526966579,-53.6010270183 -130.384291496,-47.1833701784 -132.906305941,-40.6132979269 -135.084875752,-33.908349487" stroke="#00c700" stroke-linecap="round" stroke-linejoin="round" stroke-width="18.0"/><polyline fill="none" points="-135.084875752,-33.908349487 -136.912785258,-27.0864983388 -138.38376047,-20.1661040636 -139.492489741,-13.1658629497" stroke="#00c800" stroke-linecap="round" stroke-linejoin="round" stroke-width="18.0"/><polyline fill="none" points="-139.492489741,-13.1658629497 -140.23464183,-6.10475749257 -140.606881319,0.997995073376" stroke="#00c900" stroke-linecap="round" stroke-linejoin="round" stroke-width="18.0"/><line fill="none" stroke="#00ca00" stroke-linecap="round" stroke-width="18.0" x1="-140.606881319" x2="-140.606881319" y1="0.997995073376" y2="8.12299507338"/><polyline fill="none" points="-140.606881319,8.12299507338 -140.233333431,15.2507133777 -139.485954919,22.3615449296" stroke="#00ca00" stroke-linecap="round" stroke-linejoin="round" stroke-width="19.0"/><polyline fill="none" points="-139.485954919,22.3615449296 -138.365493063,29.4358626691 -136.873726682,36.4540717043 -135.013464795,43.3966635808" stroke="#00cb00" stroke-linecap="round" stroke-linejoin="round" stroke-width="19.0"/><polyline fill="none" points="-135.013464795,43.3966635808 -132.788542435,50.2442704981 -130.203813599,56.9777193242 -127.265141353,63.5780852557" stroke="#0c0" stroke-linecap="round" stroke-linejoin="round" stroke-width="19.0"/><polyline fill="none" points="-127.265141353,63.5780852557 -123.979385111,70.0267449745 -120.354385111,76.305429152 -116.398944119,82.3962741517" stroke="#00cd00" stroke-linecap="round" stroke-linejoin="round" stroke-width="19.0"/><polyline fill="none" points="-116.398944119,82.3962741517 -112.122806409,88.2818727857 -107.536634059,93.9453239799 -102.651980633,99.3702812058" stroke="#00ce00" stroke-linecap="round" stroke-linejoin="round" stroke-width="19.0"/><polyline fill="none" points="-102.651980633,99.3702812058 -97.4812622953,104.540999543 -92.0377264487,109.442381235" stroke="#00cf00" stroke-linecap="round" stroke-linejoin="round" stroke-width="19.0"/><polyline fill="none" points="-92.0377264487,109.442381235 -86.3354179565,114.060019604 -80.3891430478,118.380241209 -74.2144309913,122.390146104" stroke="#00d000" stroke-linecap="round" stroke-linejoin="round" stroke-width="19.0"/><polyline fill="none" points="-74.2144309913,122.390146104 -67.8274936384,126.077646104 -61.245182941,129.431500921 -54.4849465544,132.441352079" stroke="#00d100" stroke-linecap="round" stroke-linejoin="round" stroke-width="19.0"/><polyline fill="none" points="-54.4849465544,132.441352079 -47.564781643,135.097754505 -40.5031870095,137.392205689 -33.3191136765,139.317172337" stroke="#00d200" stroke-linecap="round" stroke-linejoin="round" stroke-width="19.0"/><polyline fill="none" points="-33.3191136765,139.317172337 -26.031914051,140.866114433 -18.6612898094,142.033506629 -11.2272386415,142.814856891" stroke="#00d300" stroke-linecap="round" stroke-linejoin="round" stroke-width="19.0"/><polyline fill="none" points="-11.2272386415,142.814856891 -3.75,143.206722364 3.75,143.206722364" stroke="#00d400" stroke-linecap="round" stroke-linejoin="round" stroke-width="19.0"/><polyline fill="none" points="3.75,143.206722364 11.2522043798,142.813548493 18.7359816425,142.026971806 26.1806825097,140.847847026" stroke="#00d500" stroke-linecap="round" stroke-linejoin="round" stroke-width="20.0"/><polyline fill="none" points="26.1806825097,140.847847026 33.5656968953,139.278113761 40.8705109566,137.320794732 48.0747640675,134.979991" stroke="#00d600" stroke-linecap="round" stroke-linejoin="round" stroke-width="20.0"/><polyline fill="none" points="48.0747640675,134.979991 55.1583055536,132.260874182 62.1012510316,129.169675695 68.884038197,125.713673016" stroke="#00d700" stroke-linecap="round" stroke-linejoin="round" stroke-width="20.0"/><polyline fill="none" points="68.884038197,125.713673016 75.4874819009,121.901173016 81.8928283636,117.741492386 88.0818083705,113.244935206" stroke="#00d800" stroke-linecap="round" stroke-linejoin="round" stroke-width="20.0"/><polyline fill="none" points="88.0818083705,113.244935206 94.0366893002,108.422767709 99.7403258357,103.287190306 105.176209216,97.8513069252" stroke="#00d900" stroke-linecap="round" stroke-linejoin="round" stroke-width="20.0"/><polyline fill="none" points="105.176209216,97.8513069252 110.328514885,92.129091769 115.182148401,86.1353535413" stroke="#00da00" stroke-linecap="round" stroke-linejoin="round" stroke-width="20.0"/><polyline fill="none" points="115.182148401,86.1353535413 119.722789475,79.8856972597 123.936934008,73.3964837403 127.811934008,66.6847868609" stroke="#00db00" stroke-linecap="round" stroke-linejoin="round" stroke-width="20.0"/><polyline fill="none" points="127.811934008,66.6847868609 131.336035263,59.7683487169 134.498412663,52.6655327838 137.28920307,45.3952752124" stroke="#00dc00" stroke-linecap="round" stroke-linejoin="round" stroke-width="20.0"/><polyline fill="none" points="137.28920307,45.3952752124 139.699535626,37.9770343853 141.721559416,30.4307388674 143.348468396,22.7767338917" stroke="#0d0" stroke-linecap="round" stroke-linejoin="round" stroke-width="20.0"/><polyline fill="none" points="143.348468396,22.7767338917 144.574523516,15.0357265223 145.395071953,7.22872964363 145.806563409,-0.622995073376" stroke="#00de00" stroke-linecap="round" stroke-linejoin="round" stroke-width="20.0"/><line fill="none" stroke="#00df00" stroke-linecap="round" stroke-width="20.0" x1="145.806563409" x2="145.806563409" y1="-0.622995073376" y2="-8.49799507338"/><polyline fill="none" points="145.806563409,-8.49799507338 145.393763554,-16.3746855288 144.567988694,-24.2314085022" stroke="#00df00" stroke-linecap="round" stroke-linejoin="round" stroke-width="21.0"/><polyline fill="none" points="144.567988694,-24.2314085022 143.330200989,-32.0464924971 141.68250084,-39.7983122329" stroke="#00e000" stroke-linecap="round" stroke-linejoin="round" stroke-width="21.0"/><polyline fill="none" points="141.68250084,-39.7983122329 139.628124669,-47.4653484791 137.171439564,-55.0262477837 134.317934766,-62.4598819296" stroke="#00e100" stroke-linecap="round" stroke-linejoin="round" stroke-width="21.0"/><polyline fill="none" points="134.317934766,-62.4598819296 131.074210037,-69.7454069543 127.44796092,-76.8623215663 123.44796092,-83.7905247966" stroke="#00e200" stroke-linecap="round" stroke-linejoin="round" stroke-width="21.0"/><polyline fill="none" points="123.44796092,-83.7905247966 119.084040652,-90.5103727222 114.367064003,-97.0027341021 109.30890136,-103.249044767" stroke="#00e300" stroke-linecap="round" stroke-linejoin="round" stroke-width="21.0"/><polyline fill="none" points="109.30890136,-103.249044767 103.922399978,-109.231360612 98.2213515551,-114.932409036 92.2204570894,-120.335638682" stroke="#00e400" stroke-linecap="round" stroke-linejoin="round" stroke-width="21.0"/><polyline fill="none" points="92.2204570894,-120.335638682 85.9352891261,-125.425267345 79.3822514717,-130.186327888" stroke="#00e500" stroke-linecap="round" stroke-linejoin="round" stroke-width="21.0"/><polyline fill="none" points="79.3822514717,-130.186327888 72.5785364892,-134.60471206 65.5420800835,-138.66721206 58.2915144929,-142.361559751" stroke="#00e600" stroke-linecap="round" stroke-linejoin="round" stroke-width="21.0"/><polyline fill="none" points="58.2915144929,-142.361559751 50.8461190131,-145.676463392 43.2257687818,-148.601641781 35.4508817611,-151.12785571" stroke="#00e700" stroke-linecap="round" stroke-linejoin="round" stroke-width="21.0"/><polyline fill="none" points="35.4508817611,-151.12785571 27.5423640583,-153.246936641 19.5215537323,-154.951812506 11.4101632352,-156.23653055" stroke="#00e800" stroke-linecap="round" stroke-linejoin="round" stroke-width="21.0"/><polyline fill="none" points="11.4101632352,-156.23653055 3.23022064579,-157.096277161 -4.99599014675,-157.5273946 -13.2459901468,-157.5273946" stroke="#00e900" stroke-linecap="round" stroke-linejoin="round" stroke-width="21.0"/><polyline fill="none" points="-13.2459901468,-157.5273946 -21.4971666777,-157.094968762 -29.7268353618,-156.229995728 -37.9123024845,-154.933545099" stroke="#00ea00" stroke-linecap="round" stroke-linejoin="round" stroke-width="22.0"/><polyline fill="none" points="-37.9123024845,-154.933545099 -46.0309275706,-153.207878065 -54.0601860016,-151.056444753" stroke="#00eb00" stroke-linecap="round" stroke-linejoin="round" stroke-width="22.0"/><polyline fill="none" points="-54.0601860016,-151.056444753 -61.9777314998,-148.483878275 -69.7614583057,-145.495985496 -77.389562877,-142.099734526" stroke="#00ec00" stroke-linecap="round" stroke-linejoin="round" stroke-width="22.0"/><polyline fill="none" points="-77.389562877,-142.099734526 -84.8406049356,-138.303238972 -92.0935676922,-134.115738972 -99.1279170809,-129.547579066" stroke="#00ed00" stroke-linecap="round" stroke-linejoin="round" stroke-width="22.0"/><polyline fill="none" points="-99.1279170809,-129.547579066 -105.923659834,-124.610182946 -112.461400234,-119.316025157 -118.722395389,-113.678599798" stroke="#0e0" stroke-linecap="round" stroke-linejoin="round" stroke-width="22.0"/><polyline fill="none" points="-118.722395389,-113.678599798 -124.688608855,-107.712386332 -130.342762479,-101.432812556 -135.668386288,-94.8562148576" stroke="#00ef00" stroke-linecap="round" stroke-linejoin="round" stroke-width="22.0"/><polyline fill="none" points="-135.668386288,-94.8562148576 -140.649866301,-87.9997958303 -145.272490111,-80.8815793849 -149.522490111,-73.5203634527" stroke="#00f000" stroke-linecap="round" stroke-linejoin="round" stroke-width="22.0"/><polyline fill="none" points="-149.522490111,-73.5203634527 -153.38708424,-65.9356704156 -156.854514122,-58.1476953892" stroke="#00f100" stroke-linecap="round" stroke-linejoin="round" stroke-width="22.0"/><polyline fill="none" points="-156.854514122,-58.1476953892 -159.914080492,-50.1772524979 -162.556175794,-42.0457192836 -164.772313867,-33.774979396" stroke="#00f200" stroke-linecap="round" stroke-linejoin="round" stroke-width="22.0"/><polyline fill="none" points="-164.772313867,-33.774979396 -166.555156616,-25.3873637197 -167.898537585,-16.9055900949 -168.797482369,-8.3527017947" stroke="#00f300" stroke-linecap="round" stroke-linejoin="round" stroke-width="22.0"/><polyline fill="none" points="-168.797482369,-8.3527017947 -169.248225792,0.247995073376 -169.248225792,8.87299507338" stroke="#00f400" stroke-linecap="round" stroke-linejoin="round" stroke-width="22.0"/><line fill="none" stroke="#00f400" stroke-linecap="round" stroke-width="23.0" x1="-169.248225792" x2="-168.79617397" y1="8.87299507338" y2="17.4986576798"/><polyline fill="none" points="-168.79617397,17.4986576798 -167.892002762,26.1012720748 -166.536889209,34.6571223252 -164.733255291,43.1425527615" stroke="#00f500" stroke-linecap="round" stroke-linejoin="round" stroke-width="23.0"/><polyline fill="none" points="-164.733255291,43.1425527615 -162.484764837,51.5340333774 -159.796316986,59.8082250692" stroke="#00f600" stroke-linecap="round" stroke-linejoin="round" stroke-width="23.0"/><polyline fill="none" points="-159.796316986,59.8082250692 -156.674036225,67.942044535 -153.125259015,75.912728653 -149.158517023,83.6978981581" stroke="#00f700" stroke-linecap="round" stroke-linejoin="round" stroke-width="23.0"/><polyline fill="none" points="-149.158517023,83.6978981581 -144.783517023,91.2756204412 -140.011117479,98.6244712928 -134.85330189,105.723595418" stroke="#00f800" stroke-linecap="round" stroke-linejoin="round" stroke-width="23.0"/><polyline fill="none" points="-134.85330189,105.723595418 -129.323148954,112.552765555 -123.434799618,119.092440019 -117.203421108,125.323818528" stroke="#00f900" stroke-linecap="round" stroke-linejoin="round" stroke-width="23.0"/><polyline fill="none" points="-117.203421108,125.323818528 -110.645168024,131.228896129 -103.777140589,136.790515085 -96.617340189,141.992414568" stroke="#00fa00" stroke-linecap="round" stroke-linejoin="round" stroke-width="23.0"/><polyline fill="none" points="-96.617340189,141.992414568 -89.1846222806,146.819278016 -81.498646822,151.256778016 -73.5798263383,155.291618582" stroke="#00fb00" stroke-linecap="round" stroke-linejoin="round" stroke-width="23.0"/><polyline fill="none" points="-73.5798263383,155.291618582 -65.4492717652,158.911574706 -57.1287362141,162.105529056" stroke="#00fc00" stroke-linecap="round" stroke-linejoin="round" stroke-width="23.0"/><polyline fill="none" points="-57.1287362141,162.105529056 -48.6405568061,164.863505731 -40.0075947337,167.176700946 -31.2531737071,169.037510579" stroke="#00fd00" stroke-linecap="round" stroke-linejoin="round" stroke-width="23.0"/><polyline fill="none" points="-31.2531737071,169.037510579 -22.4010169545,170.439554472 -13.4751829436,171.37769743 -4.5,171.848066837" stroke="#00fe00" stroke-linecap="round" stroke-linejoin="round" stroke-width="23.0"/><line fill="none" stroke="none" stroke-linecap="round" stroke-width="2.0" x1="0.0" x2="0.0" y1="0.0" y2="0.0"/><polygon fill="#0f0" fill-rule="evenodd" points="-4.5,171.848066837 -13.5,166.848066837 -11.5,171.848066837 -13.5,176.848066837" stroke="#0f0" stroke-linejoin="round"/></svg>